<svg xmlns="http://www.w3.org/2000/svg" version="1.1" xmlns:xlink="http://www.w3.org/1999/xlink"
    xmlns:svgjs="http://svgjs.com/svgjs" width="512" height="512" x="0" y="0"
    viewBox="0 0 682.667 682.667" style="enable-background:new 0 0 512 512" xml:space="preserve"
    class=""><g><defs><clipPath id="a" clipPathUnits="userSpaceOnUse"><path d="M0 512h512V0H0Z" fill="#000000" data-original="#000000"></path></clipPath><clipPath id="c" clipPathUnits="userSpaceOnUse"><path d="M0 512h512V0H0Z" fill="#000000" data-original="#000000"></path></clipPath><clipPath id="e" clipPathUnits="userSpaceOnUse"><path d="M0 512h512V0H0Z" fill="#000000" data-original="#000000"></path></clipPath><clipPath id="h" clipPathUnits="userSpaceOnUse"><path d="M0 512h512V0H0Z" fill="#000000" data-original="#000000"></path></clipPath><clipPath id="i" clipPathUnits="userSpaceOnUse"><path d="M56.455 464.216h399.09V17.784H56.455Z" fill="#000000" data-original="#000000"></path></clipPath><clipPath id="j" clipPathUnits="userSpaceOnUse"><path d="M0 512h512V0H0Z" fill="#000000" data-original="#000000"></path></clipPath><linearGradient id="b" x1="0" x2="1" y1="0" y2="0" gradientTransform="matrix(487.93188 0 0 -487.93188 544.034 -276)" gradientUnits="userSpaceOnUse" spreadMethod="pad"><stop offset="0" style="stop-opacity:1;stop-color:#ffdbed"></stop><stop offset=".049" style="stop-opacity:1;stop-color:#ffdbed"></stop><stop offset=".971" style="stop-opacity:1;stop-color:#d2deff"></stop><stop offset=".999" style="stop-opacity:1;stop-color:#d2deff"></stop><stop offset="1" style="stop-opacity:1;stop-color:#d2deff"></stop></linearGradient><linearGradient id="d" x1="0" x2="1" y1="0" y2="0" gradientTransform="matrix(421.45193 0 0 -421.45193 45.274 -276)" gradientUnits="userSpaceOnUse" spreadMethod="pad"><stop offset="0" style="stop-opacity:1;stop-color:#ffdbed"></stop><stop offset=".971" style="stop-opacity:1;stop-color:#dcfdee"></stop><stop offset="1" style="stop-opacity:1;stop-color:#dcfdee"></stop></linearGradient><linearGradient id="f" x1="0" x2="1" y1="0" y2="0" gradientTransform="matrix(421.45193 0 0 -421.45193 577.274 256)" gradientUnits="userSpaceOnUse" spreadMethod="pad"><stop offset="0" style="stop-opacity:1;stop-color:#d2deff"></stop><stop offset=".049" style="stop-opacity:1;stop-color:#d2deff"></stop><stop offset=".972" style="stop-opacity:1;stop-color:#dcfdee"></stop><stop offset="1" style="stop-opacity:1;stop-color:#dcfdee"></stop></linearGradient><linearGradient id="g" x1="0" x2="1" y1="0" y2="0" gradientTransform="matrix(487.93188 0 0 -487.93188 12.034 256)" gradientUnits="userSpaceOnUse" spreadMethod="pad"><stop offset="0" style="stop-opacity:1;stop-color:#ffdbed"></stop><stop offset=".049" style="stop-opacity:1;stop-color:#ffdbed"></stop><stop offset=".971" style="stop-opacity:1;stop-color:#d2deff"></stop><stop offset=".999" style="stop-opacity:1;stop-color:#d2deff"></stop><stop offset="1" style="stop-opacity:1;stop-color:#d2deff"></stop></linearGradient><linearGradient id="k" x1="0" x2="1" y1="0" y2="0" gradientTransform="matrix(487.93188 0 0 -487.93188 -519.966 788)" gradientUnits="userSpaceOnUse" spreadMethod="pad"><stop offset="0" style="stop-opacity:1;stop-color:#ffdbed"></stop><stop offset=".049" style="stop-opacity:1;stop-color:#ffdbed"></stop><stop offset=".971" style="stop-opacity:1;stop-color:#d2deff"></stop><stop offset=".999" style="stop-opacity:1;stop-color:#d2deff"></stop><stop offset="1" style="stop-opacity:1;stop-color:#d2deff"></stop></linearGradient></defs><g clip-path="url(#a)" transform="matrix(1.33333 0 0 -1.33333 0 682.667)"><path d="M818.593-24.867c-94.351-27.746-75.427-93.585-85.981-166.539-13.171-91.052-70.094-44.365-135.496-93.537-113.054-85.001-30.93-272.636 109.469-244.14 74.552 15.13 89.786 70.094 120.192 128.824C866.11-324.287 931.336-345 989.844-295.403 1108.499-194.821 952.44 14.494 818.593-24.867" style="fill:url(#b);stroke:none" fill=""></path></g><g clip-path="url(#c)" transform="matrix(1.33333 0 0 -1.33333 0 682.667)"><path d="M97.146-58.232c-135.328-119.539 38.831-235.409 22.243-366.028-7.375-58.072 16.053-113.588 92.705-107.244 93.412 7.732 59.504 97.209 79.065 156.778 33.659 102.501 240.73 78.56 154.895 236.448C391.277-37.52 190.288 24.043 97.146-58.232" style="fill:url(#d);stroke:none" fill=""></path></g><g clip-path="url(#e)" transform="matrix(1.33333 0 0 -1.33333 0 682.667)"><path d="M629.146 473.768c-135.328-119.539 38.831-235.409 22.243-366.028C644.014 49.668 667.442-5.848 744.094.496c93.412 7.732 59.504 97.209 79.065 156.778 33.659 102.501 240.73 78.56 154.895 236.448-54.777 100.758-255.766 162.321-348.908 80.046" style="fill:url(#f);stroke:none" fill=""></path></g><path d="M286.592 507.133c-94.35-27.746-75.426-93.585-85.979-166.539-13.172-91.052-70.095-44.364-135.497-93.538-113.054-85-30.93-272.635 109.469-244.139 74.552 15.131 89.786 70.095 120.192 128.824 39.334 75.972 104.559 55.258 163.067 104.855C566.497 328.701 444.777 511.981 320.715 512c-11.42.002-22.841-1.549-34.123-4.867" style="fill:url(#g);stroke:none" transform="matrix(1.33333 0 0 -1.33333 0 682.667)" fill=""></path><g clip-path="url(#h)" transform="matrix(1.33333 0 0 -1.33333 0 682.667)"><g clip-path="url(#i)" opacity=".1"><path d="M0 0c-11.043-19.127-41.256-27.099-82.896-21.869-6.871.863-13.936 2.058-21.158 3.569 6.253 21.538 10.808 45.378 13.49 70.588 20.491 14.927 38.859 30.79 54.385 46.975 4.92-5.499 9.488-11.02 13.67-16.539C2.839 49.279 11.043 19.127 0 0m-124.264-45.753c-16.29-38.674-38.3-60.855-60.386-60.855-22.086 0-44.097 22.181-60.387 60.855-2.689 6.382-5.186 13.099-7.488 20.108 16.03 3.941 32.677 9.299 49.591 15.957 4.045-5.744 10.724-9.501 18.284-9.501 7.559 0 14.238 3.757 18.283 9.501 16.914-6.658 33.561-12.016 49.592-15.957-2.303-7.009-4.8-13.726-7.489-20.108m-162.141 23.884c-41.64-5.229-71.852 2.742-82.896 21.869-6.888 11.933-6.285 28.157 1.296 46.793a22.337 22.337 0 0 1 6.984-1.119c12.345 0 22.353 10.008 22.353 22.353 0 6.379-2.676 12.13-6.962 16.202a266.321 266.321 0 0 0 12.508 15.034c15.526-16.185 33.894-32.048 54.386-46.975 2.681-25.21 7.236-49.05 13.489-70.588-7.222-1.511-14.287-2.706-21.158-3.569m-60.387 152.361c-25.348 33.445-33.552 63.596-22.509 82.724 8.822 15.279 29.872 23.439 59.212 23.439 7.389 0 15.307-.518 23.684-1.57 6.871-.863 13.936-2.058 21.158-3.569-6.253-21.538-10.808-45.378-13.489-70.587-20.492-14.928-38.86-30.791-54.386-46.975-4.919 5.498-9.487 11.019-13.67 16.538m101.755 128.477c16.29 38.674 38.301 60.855 60.387 60.855 12.616 0 25.206-7.249 36.72-20.664a22.269 22.269 0 0 1-5.691-14.896c0-12.345 10.008-22.353 22.353-22.353a22.4 22.4 0 0 1 5.444.671 214.225 214.225 0 0 0 1.56-3.613c2.689-6.382 5.186-13.098 7.489-20.108-21.78-5.354-44.703-13.33-67.875-23.612-23.173 10.282-46.096 18.258-67.875 23.612 2.302 7.01 4.799 13.726 7.488 20.108m155.703-111.408c17.344-13.145 32.961-26.937 46.353-40.953C-56.373 92.592-71.99 78.8-89.334 65.655a521.284 521.284 0 0 1 1.6 40.953c0 13.889-.545 27.581-1.6 40.953m-83.125 62.07c20.057 8.448 39.809 15.077 58.643 19.666 5.443-18.606 9.578-39.026 12.291-60.619a522.113 522.113 0 0 1-34.667 21.862 522.215 522.215 0 0 1-36.267 19.091m-60.649-19.091a521.594 521.594 0 0 1-34.667-21.862c2.713 21.593 6.847 42.013 12.291 60.619 18.834-4.589 38.586-11.218 58.642-19.666a521.968 521.968 0 0 1-36.266-19.091m-46.859-124.885c-17.344 13.145-32.961 26.937-46.352 40.953 13.391 14.016 29.008 27.808 46.352 40.953a521.792 521.792 0 0 1-1.599-40.953c0-13.889.545-27.582 1.599-40.953m138.775-34.319a518.857 518.857 0 0 0-26.103-14.089c-4.099 5.045-10.35 8.27-17.355 8.27-7.006 0-13.257-3.225-17.356-8.27a518.83 518.83 0 0 0-26.102 14.089c-14.425 8.329-28.195 17.193-41.135 26.433-1.531 15.826-2.323 32.183-2.323 48.839s.792 33.014 2.323 48.84c12.94 9.239 26.71 18.104 41.135 26.431 14.424 8.329 28.986 15.822 43.458 22.409 14.471-6.587 29.033-14.08 43.458-22.409 14.424-8.327 28.194-17.192 41.134-26.431 1.532-15.826 2.324-32.184 2.324-48.84 0-16.656-.792-33.013-2.324-48.839-12.94-9.24-26.71-18.104-41.134-26.433m-21.699-23.065a527.518 527.518 0 0 1 26.699 14.405 522.113 522.113 0 0 1 34.667 21.862c-2.713-21.593-6.848-42.014-12.291-60.619-15.737 3.834-32.114 9.089-48.774 15.643a22.382 22.382 0 0 1-.301 8.709m-43.82-8.709c-16.66-6.554-33.037-11.809-48.773-15.643-5.444 18.605-9.578 39.026-12.291 60.619a521.594 521.594 0 0 1 34.667-21.862A527.06 527.06 0 0 1-206.41 8.271a22.382 22.382 0 0 1-.301-8.709m123.815 235.523c8.379 1.052 16.293 1.57 23.684 1.57 29.336 0 50.391-8.161 59.212-23.439 11.043-19.128 2.839-49.279-22.509-82.724-4.182-5.519-8.75-11.04-13.67-16.538-15.526 16.184-33.894 32.047-54.385 46.975-2.682 25.209-7.237 49.049-13.49 70.587 7.222 1.511 14.287 2.706 21.158 3.569m53.55-128.477c5.338 5.928 10.291 11.885 14.807 17.844C13.768 161.8 22.006 195.1 8.66 218.216s-46.3 32.629-92.802 26.791c-7.418-.932-15.053-2.243-22.856-3.902-2.465 7.587-5.148 14.856-8.05 21.746a239.939 239.939 0 0 1-1.858 4.288c4.884 4.1 7.991 10.249 7.991 17.125 0 12.345-10.008 22.353-22.353 22.353-2.964 0-5.793-.583-8.381-1.631-13.629 16.234-28.957 24.838-45.001 24.838-26.693 0-51.412-23.785-69.603-66.973-2.902-6.89-5.585-14.159-8.05-21.746-7.802 1.659-15.438 2.97-22.856 3.902-46.505 5.839-79.456-3.675-92.802-26.791-13.346-23.116-5.107-56.416 23.199-93.764 4.516-5.959 9.469-11.916 14.807-17.844-5.162-5.733-9.958-11.493-14.353-17.255a22.322 22.322 0 0 1-6.713 1.027c-12.344 0-22.352-10.007-22.352-22.353 0-6.234 2.555-11.87 6.671-15.924-9.474-22.277-10.039-41.895-1.259-57.103 10.78-18.672 34.354-28.469 67.525-28.469 7.896 0 16.336.555 25.277 1.678 7.418.932 15.054 2.243 22.856 3.902 2.465-7.587 5.148-14.856 8.05-21.746 18.191-43.188 42.91-66.973 69.603-66.973 26.692 0 51.411 23.785 69.602 66.973 2.902 6.89 5.585 14.159 8.05 21.746 7.803-1.659 15.438-2.97 22.856-3.902 8.944-1.123 17.379-1.678 25.277-1.678C-25.697-33.468-2.119-23.67 8.66-5c13.346 23.116 5.108 56.416-23.199 93.764-4.516 5.959-9.469 11.916-14.807 17.844" style="fill-opacity:1;fill-rule:nonzero;stroke:none" transform="translate(440.65 134.392)" fill="#bdbdbd" data-original="#2626bc" class=""></path><path d="M0 0c-26.225 0-47.484-21.26-47.484-47.485 0-26.225 21.259-47.484 47.484-47.484S47.484-73.71 47.484-47.485 26.225 0 0 0" style="fill-opacity:1;fill-rule:nonzero;stroke:none" transform="translate(256 288.485)" fill="#bdbdbd" data-original="#2626bc" class=""></path></g><path d="M0 0c17.259-39.67 27.988-95.257 27.988-156.794 0-120.518-41.152-218.216-91.916-218.216-50.763 0-91.916 97.698-91.916 218.216 0 120.517 41.153 218.215 91.916 218.215 13.975 0 27.221-7.403 39.08-20.649" style="stroke-width:10;stroke-linecap:round;stroke-linejoin:round;stroke-miterlimit:10;stroke-dasharray:none;stroke-opacity:1" transform="translate(319.928 421.794)" fill="none" stroke="#bdbdbd" stroke-width="10" stroke-linecap="round" stroke-linejoin="round" stroke-miterlimit="10" stroke-dasharray="none" stroke-opacity="" data-original="#2626bc" class=""></path><path d="M0 0a519.492 519.492 0 0 0-24.843 13.462c-104.371 60.259-168.404 144.747-143.022 188.71 25.382 43.963 130.567 30.752 234.938-29.506 104.371-60.259 168.405-144.747 143.023-188.71-19.784-34.267-88.052-33.799-166.628-3.39" style="stroke-width:10;stroke-linecap:round;stroke-linejoin:round;stroke-miterlimit:10;stroke-dasharray:none;stroke-opacity:1" transform="translate(234.885 171.936)" fill="none" stroke="#bdbdbd" stroke-width="10" stroke-linecap="round" stroke-linejoin="round" stroke-miterlimit="10" stroke-dasharray="none" stroke-opacity="" data-original="#2626bc" class=""></path><path d="M0 0c-7.641-19.26-8.275-36.575-.483-50.07 19.784-34.267 88.051-33.799 166.628-3.39" style="stroke-width:10;stroke-linecap:round;stroke-linejoin:round;stroke-miterlimit:10;stroke-dasharray:none;stroke-opacity:1" transform="translate(67.503 205.962)" fill="none" stroke="#bdbdbd" stroke-width="10" stroke-linecap="round" stroke-linejoin="round" stroke-miterlimit="10" stroke-dasharray="none" stroke-opacity="" data-original="#2626bc" class=""></path><path d="M0 0a520.925 520.925 0 0 1 24.182 13.126c104.371 60.259 168.404 144.747 143.022 188.71-25.382 43.963-130.567 30.752-234.938-29.506-50.795-29.327-92.037-64.392-118.066-97.732" style="stroke-width:10;stroke-linecap:round;stroke-linejoin:round;stroke-miterlimit:10;stroke-dasharray:none;stroke-opacity:1" transform="translate(277.776 172.272)" fill="none" stroke="#bdbdbd" stroke-width="10" stroke-linecap="round" stroke-linejoin="round" stroke-miterlimit="10" stroke-dasharray="none" stroke-opacity="" data-original="#2626bc" class=""></path><path d="M0 0c0-26.225-21.26-47.484-47.484-47.484-26.225 0-47.485 21.259-47.485 47.484s21.26 47.484 47.485 47.484C-21.26 47.484 0 26.225 0 0" style="fill-opacity:1;fill-rule:nonzero;stroke:none" transform="translate(303.484 265)" fill="#02ffb3" data-original="#02ffb3" class=""></path><path d="M0 0h-12.168v23.854c0 1.112-1.493 1.475-2.004.487l-18.11-35.05a1.061 1.061 0 0 1 .942-1.549h12.167v-23.854c0-1.112 1.494-1.475 2.005-.487L.942-1.549A1.06 1.06 0 0 1 0 0" style="fill-opacity:1;fill-rule:nonzero;stroke:none" transform="translate(271.67 271.129)" fill="#ffffff" data-original="#ffffff"></path><path d="M0 0c-17.943-6.78-30.708-24.109-30.708-44.426 0-26.225 21.26-47.485 47.484-47.485 26.225 0 47.485 21.26 47.485 47.485 0 20.53-13.03 38.014-31.27 44.641" style="stroke-width:10;stroke-linecap:round;stroke-linejoin:round;stroke-miterlimit:10;stroke-dasharray:none;stroke-opacity:1" transform="translate(239.224 309.426)" fill="none" stroke="#bdbdbd" stroke-width="10" stroke-linecap="round" stroke-linejoin="round" stroke-miterlimit="10" stroke-dasharray="none" stroke-opacity="" data-original="#2626bc" class=""></path><path d="M0 0c0-12.345-10.008-22.353-22.353-22.353-12.345 0-22.353 10.008-22.353 22.353 0 12.345 10.008 22.353 22.353 22.353C-10.008 22.353 0 12.345 0 0" style="fill-opacity:1;fill-rule:nonzero;stroke:none" transform="translate(331.735 442.656)" fill="#9fb0fe" data-original="#9fb0fe" class=""></path><path d="M0 0c0-12.345-10.008-22.353-22.353-22.353-12.345 0-22.353 10.008-22.353 22.353 0 12.345 10.008 22.353 22.353 22.353C-10.008 22.353 0 12.345 0 0Z" style="stroke-width:10;stroke-linecap:round;stroke-linejoin:round;stroke-miterlimit:10;stroke-dasharray:none;stroke-opacity:1" transform="translate(331.735 442.656)" fill="none" stroke="#bdbdbd" stroke-width="10" stroke-linecap="round" stroke-linejoin="round" stroke-miterlimit="10" stroke-dasharray="none" stroke-opacity="" data-original="#2626bc" class=""></path><path d="M0 0c0-12.345-10.008-22.353-22.353-22.353-12.344 0-22.352 10.008-22.352 22.353 0 12.345 10.008 22.353 22.352 22.353C-10.008 22.353 0 12.345 0 0" style="fill-opacity:1;fill-rule:nonzero;stroke:none" transform="translate(101.982 226.42)" fill="#ff7eb8" data-original="#ff7eb8"></path><path d="M0 0c0-12.345-10.008-22.353-22.353-22.353-12.344 0-22.352 10.008-22.352 22.353 0 12.345 10.008 22.353 22.352 22.353C-10.008 22.353 0 12.345 0 0Z" style="stroke-width:10;stroke-linecap:round;stroke-linejoin:round;stroke-miterlimit:10;stroke-dasharray:none;stroke-opacity:1" transform="translate(101.982 226.42)" fill="none" stroke="#bdbdbd" stroke-width="10" stroke-linecap="round" stroke-linejoin="round" stroke-miterlimit="10" stroke-dasharray="none" stroke-opacity="" data-original="#2626bc" class=""></path><path d="M0 0c0-12.345-10.008-22.353-22.353-22.353-12.344 0-22.352 10.008-22.352 22.353 0 12.345 10.008 22.353 22.352 22.353C-10.008 22.353 0 12.345 0 0" style="fill-opacity:1;fill-rule:nonzero;stroke:none" transform="translate(278.353 161.556)" fill="#ffffff" data-original="#ffffff"></path><path d="M0 0c0-12.345-10.008-22.353-22.353-22.353-12.344 0-22.352 10.008-22.352 22.353 0 12.345 10.008 22.353 22.352 22.353C-10.008 22.353 0 12.345 0 0Z" style="stroke-width:10;stroke-linecap:round;stroke-linejoin:round;stroke-miterlimit:10;stroke-dasharray:none;stroke-opacity:1" transform="translate(278.353 161.556)" fill="none" stroke="#bdbdbd" stroke-width="10" stroke-linecap="round" stroke-linejoin="round" stroke-miterlimit="10" stroke-dasharray="none" stroke-opacity="" data-original="#2626bc" class=""></path><path d="m0 0-7.741-7.742 10.273-6.516L-5.21-22" style="stroke-width:10;stroke-linecap:round;stroke-linejoin:round;stroke-miterlimit:10;stroke-dasharray:none;stroke-opacity:1" transform="translate(123.879 463.76)" fill="none" stroke="#ff7eb8" stroke-width="10" stroke-linecap="round" stroke-linejoin="round" stroke-miterlimit="10" stroke-dasharray="none" stroke-opacity="" data-original="#ff7eb8" class=""></path><path d="m0 0-7.741-7.742 10.273-6.516L-5.21-22" style="stroke-width:10;stroke-linecap:round;stroke-linejoin:round;stroke-miterlimit:10;stroke-dasharray:none;stroke-opacity:1" transform="translate(399.059 194.909)" fill="none" stroke="#ff7eb8" stroke-width="10" stroke-linecap="round" stroke-linejoin="round" stroke-miterlimit="10" stroke-dasharray="none" stroke-opacity="" data-original="#ff7eb8" class=""></path><path d="M0 0c0-6.075-4.925-11-11-11 6.075 0 11-4.925 11-11 0 6.075 4.925 11 11 11C4.925-11 0-6.075 0 0Z" style="stroke-width:10;stroke-linecap:round;stroke-linejoin:round;stroke-miterlimit:10;stroke-dasharray:none;stroke-opacity:1" transform="translate(131.77 358.728)" fill="none" stroke="#01eca5" stroke-width="10" stroke-linecap="round" stroke-linejoin="round" stroke-miterlimit="10" stroke-dasharray="none" stroke-opacity="" data-original="#01eca5" class=""></path><path d="M0 0c0-6.075-4.925-11-11-11 6.075 0 11-4.925 11-11 0 6.075 4.925 11 11 11C4.925-11 0-6.075 0 0Z" style="stroke-width:10;stroke-linecap:round;stroke-linejoin:round;stroke-miterlimit:10;stroke-dasharray:none;stroke-opacity:1" transform="translate(153.213 89.895)" fill="none" stroke="#6583fe" stroke-width="10" stroke-linecap="round" stroke-linejoin="round" stroke-miterlimit="10" stroke-dasharray="none" stroke-opacity="" data-original="#6583fe"></path><path d="M0 0c0-6.075-4.925-11-11-11 6.075 0 11-4.925 11-11 0 6.075 4.925 11 11 11C4.925-11 0-6.075 0 0Z" style="stroke-width:10;stroke-linecap:round;stroke-linejoin:round;stroke-miterlimit:10;stroke-dasharray:none;stroke-opacity:1" transform="translate(455.844 262.597)" fill="none" stroke="#ff7eb8" stroke-width="10" stroke-linecap="round" stroke-linejoin="round" stroke-miterlimit="10" stroke-dasharray="none" stroke-opacity="" data-original="#ff7eb8" class=""></path></g><g clip-path="url(#j)" transform="matrix(1.33333 0 0 -1.33333 0 682.667)"><path d="M-245.407 1039.133c-94.351-27.746-75.427-93.585-85.981-166.539-13.171-91.052-70.094-44.365-135.495-93.537-113.054-85.001-30.931-272.636 109.467-244.14 74.552 15.13 89.787 70.094 120.193 128.824C-197.89 739.713-132.664 719-74.156 768.597c118.655 100.582-37.404 309.897-171.251 270.536" style="fill:url(#k);stroke:none" fill=""></path></g></g></svg>