<svg xmlns="http://www.w3.org/2000/svg" version="1.1" xmlns:xlink="http://www.w3.org/1999/xlink"
    xmlns:svgjs="http://svgjs.com/svgjs" width="512" height="512" x="0" y="0" viewBox="0 0 512 512"
    style="enable-background:new 0 0 512 512" xml:space="preserve" class=""><g><circle cx="453.426" cy="173.125" r="47.562" fill="#57c6fd" transform="rotate(-38.1 453.675 173.111)" data-original="#57c6fd" class=""></circle><path fill="#38b4f2" fill-rule="evenodd" d="M487.833 205.968c11.199-11.755 16.091-28.944 11.381-45.708-7.105-25.288-33.365-40.029-58.654-32.923-.295.083-.588.171-.88.259-11.199 11.755-16.092 28.944-11.382 45.708 7.105 25.288 33.365 40.029 58.654 32.923.296-.083.588-.171.881-.26z" data-original="#38b4f2" class=""></path><circle cx="58.574" cy="218.468" r="47.562" fill="#e33657" transform="rotate(-49 58.602 218.424)" data-original="#e33657" class=""></circle><path fill="#fd5959" fill-rule="evenodd" d="M12.786 231.333c4.655 16.569 17.534 28.609 32.975 32.944l.078-.021c25.288-7.105 40.029-33.365 32.924-58.654-4.655-16.569-17.534-28.609-32.975-32.944l-.078.021c-25.288 7.105-40.029 33.365-32.923 58.654z" data-original="#fd5959" class=""></path><path fill="#cadbfd" fill-rule="evenodd" d="m308.732 244.155 125.982-75.696c6.429-3.862 14.848-1.763 18.711 4.666 3.862 6.429 1.763 14.849-4.665 18.711l-125.982 75.696c-6.429 3.863-14.848 1.763-18.711-4.665-3.863-6.429-1.763-14.849 4.666-18.712z" data-original="#cadbfd"></path><path fill="#abc7f0" fill-rule="evenodd" d="M453.426 173.126c3.862 6.429 1.763 14.848-4.665 18.711l-125.982 75.696c-6.428 3.862-14.846 1.764-18.709-4.662l-.002-.004 149.359-89.741zM75.416 209.074l141.386 40.143c7.215 2.048 11.441 9.627 9.393 16.842-2.048 7.215-9.627 11.442-16.842 9.393L67.967 235.309c-7.215-2.048-11.441-9.627-9.393-16.841 2.049-7.215 9.627-11.442 16.842-9.394z" data-original="#abc7f0" class=""></path><path fill="#cadbfd" fill-rule="evenodd" d="M226.195 266.059c-2.048 7.215-9.627 11.441-16.842 9.393L67.967 235.309c-7.215-2.048-11.441-9.627-9.393-16.841l167.62 47.591z" data-original="#cadbfd"></path><circle cx="257.521" cy="283.643" r="79.57" fill="#9eefff" transform="rotate(-45 257.49 283.71)" data-original="#9eefff"></circle><g fill-rule="evenodd"><path fill="#65e4fd" d="M271.223 362.028a80.29 80.29 0 0 0 7.821-1.782c42.307-11.887 66.967-55.82 55.08-98.126-8.546-30.418-33.659-51.714-62.823-56.862a80.29 80.29 0 0 0-7.821 1.782c-42.307 11.887-66.967 55.82-55.08 98.127 8.547 30.418 33.66 51.714 62.823 56.862z" data-original="#65e4fd" class=""></path><path fill="#abc7f0" d="M235.759 238.103 201.047 95.287c-1.771-7.288 2.742-14.699 10.029-16.47 7.288-1.772 14.699 2.742 16.47 10.029l34.712 142.816c1.771 7.288-2.742 14.699-10.029 16.47-7.288 1.772-14.699-2.741-16.471-10.029z" data-original="#abc7f0" class=""></path><path fill="#cadbfd" d="M235.759 238.103 201.047 95.287c-1.771-7.288 2.742-14.699 10.029-16.47s41.153 169.316 41.153 169.316l-.012.003c-7.284 1.764-14.689-2.748-16.46-10.032zM315.899 303.513l105.177 102.66c5.367 5.238 5.472 13.915.234 19.282-5.239 5.368-13.916 5.472-19.283.234L296.85 323.029c-5.367-5.239-5.472-13.915-.233-19.282 5.239-5.368 13.916-5.473 19.283-.234z" data-original="#cadbfd"></path><path fill="#abc7f0" d="M421.309 425.456c-5.239 5.367-13.916 5.472-19.283.233l-105.177-102.66c-5.367-5.239-5.472-13.915-.233-19.282z" data-original="#abc7f0" class=""></path><path fill="#eb6c28" d="M374.254 438.677c7.302 25.988 34.289 41.136 60.277 33.834s41.136-34.289 33.834-60.277-34.289-41.136-60.277-33.834-41.136 34.289-33.834 60.277z" data-original="#eb6c28" class=""></path><path fill="#fd8140" d="M397.38 468.075c10.909 6.125 24.155 8.087 37.15 4.436 25.988-7.302 41.136-34.289 33.834-60.277a48.92 48.92 0 0 0-5.055-11.794c-10.908-6.125-24.154-8.087-37.15-4.436-25.988 7.302-41.136 34.289-33.834 60.277a48.918 48.918 0 0 0 5.054 11.794z" data-original="#fd8140"></path><path fill="#cadbfd" d="m226.93 321.639-98.554 109.034c-5.029 5.564-13.696 6.001-19.259.972-5.564-5.029-6.001-13.696-.972-19.26l98.554-109.034c5.029-5.564 13.696-6.001 19.259-.972 5.564 5.03 6.001 13.696.972 19.26z" data-original="#cadbfd"></path><path fill="#abc7f0" d="m226.93 321.639-98.554 109.034c-5.029 5.564-13.696 6.001-19.259.972S225.959 302.38 225.959 302.38c5.564 5.029 6.001 13.696.972 19.259z" data-original="#abc7f0" class=""></path></g><circle cx="104.248" cy="437.03" r="61.987" fill="#20a48d" transform="rotate(-18.05 104.447 437.465)" data-original="#20a48d"></circle><path fill="#28d481" fill-rule="evenodd" d="M44.572 453.797c9.26 32.958 43.485 52.169 76.443 42.909a62.02 62.02 0 0 0 15.707-6.858c8.531-14.142 11.428-31.639 6.608-48.794-9.26-32.958-43.485-52.169-76.444-42.909a62.013 62.013 0 0 0-15.706 6.858c-8.531 14.143-11.429 31.639-6.609 48.795z" data-original="#28d481"></path><circle cx="211.076" cy="78.816" r="65.832" fill="#fcbc40" transform="rotate(-87.14 211.06 78.781)" data-original="#fcbc40"></circle><path fill="#fddd41" fill-rule="evenodd" d="M264.522 40.349c-15.697-21.805-43.886-32.6-71.253-24.911-32.424 9.11-52.316 40.972-47.254 73.44 15.697 21.805 43.886 32.6 71.253 24.911 32.424-9.11 52.316-40.972 47.254-73.44z" data-original="#fddd41" class=""></path></g></svg>