<svg xmlns="http://www.w3.org/2000/svg" version="1.1" xmlns:xlink="http://www.w3.org/1999/xlink"
    xmlns:svgjs="http://svgjs.com/svgjs" width="512" height="512" x="0" y="0" viewBox="0 0 512 512"
    style="enable-background:new 0 0 512 512" xml:space="preserve" class=""><g><path d="M61.545 399.732A31.459 31.459 0 1 1 93 368.27a31.5 31.5 0 0 1-31.451 31.462ZM256 512a31.459 31.459 0 1 1 31.451-31.456A31.5 31.5 0 0 1 256 512Zm225.921-143.73a31.461 31.461 0 1 1-31.466-31.456 31.5 31.5 0 0 1 31.466 31.456Zm-31.466-256A31.457 31.457 0 1 1 419 143.73a31.5 31.5 0 0 1 31.456-31.457ZM256 0a31.459 31.459 0 1 1-31.456 31.461A31.493 31.493 0 0 1 256 0Zm-34.579 58.689-118.992 68.7a43.785 43.785 0 0 1 0 32.679l27.23 15.718a6.3 6.3 0 0 1-3.157 11.749 6.205 6.205 0 0 1-3.138-.846l-27.239-15.725a44.063 44.063 0 0 1-28.285 16.357v137.363a44.063 44.063 0 0 1 28.285 16.351l27.239-15.723a6.295 6.295 0 0 1 6.295 10.9l-27.23 15.718a43.785 43.785 0 0 1 0 32.679l118.992 68.7a44.031 44.031 0 0 1 28.279-16.36v-31.422a6.3 6.3 0 0 1 12.591 0v31.422a44.058 44.058 0 0 1 28.284 16.357l118.995-68.694a43.8 43.8 0 0 1 0-32.679l-27.229-15.718a6.295 6.295 0 0 1 6.3-10.9l27.24 15.723a44.046 44.046 0 0 1 28.284-16.351V187.321a44.046 44.046 0 0 1-28.284-16.357l-27.24 15.724a6.205 6.205 0 0 1-3.138.846 6.3 6.3 0 0 1-3.157-11.749l27.229-15.718a43.8 43.8 0 0 1 0-32.679l-118.991-68.7A44.037 44.037 0 0 1 262.3 75.046v31.427a6.3 6.3 0 0 1-12.591 0V75.046a44.025 44.025 0 0 1-28.283-16.357ZM30.079 143.73a31.459 31.459 0 1 1 31.466 31.456 31.5 31.5 0 0 1-31.466-31.456Zm124.737 183.121c-8.562-12.224-5.152-31.1 9.611-53.143A171.4 171.4 0 0 1 178.171 256a171.4 171.4 0 0 1-13.744-17.708c-14.763-22.043-18.173-40.919-9.611-53.143s27.457-15.476 53.227-9.146c2.41.594 4.88 1.287 7.374 2.029.807-2.465 1.658-4.88 2.559-7.2 9.592-24.736 23.092-38.355 38.024-38.355s28.432 13.619 38.024 38.355c.9 2.321 1.752 4.736 2.558 7.2a163.76 163.76 0 0 1 7.375-2.029c25.769-6.325 44.665-3.079 53.227 9.146s5.147 31.1-9.611 53.148A172.022 172.022 0 0 1 333.83 256a171.525 171.525 0 0 1 13.743 17.708c14.758 22.043 18.173 40.919 9.611 53.143-5.7 8.147-15.99 12.3-29.838 12.3A99.125 99.125 0 0 1 303.957 336a156.176 156.176 0 0 1-7.375-2.029 138.555 138.555 0 0 1-2.558 7.2c-9.592 24.736-23.093 38.356-38.024 38.356s-28.432-13.62-38.024-38.356c-.9-2.316-1.752-4.731-2.559-7.2a154.503 154.503 0 0 1-7.374 2.029 99.159 99.159 0 0 1-23.389 3.158c-13.848 0-24.137-4.157-29.838-12.3Zm10.314-7.221c-6.78-9.68 1.143-30.689 21.642-54.365 5.7 5.785 11.942 11.511 18.6 17.089a246.613 246.613 0 0 0 6.5 39.538c-23.434 7.033-40.914 6.078-46.749-2.262Zm68.4-95.72a293.7 293.7 0 0 1 22.474-14.278 294.43 294.43 0 0 1 38.504 26.344q.66 9.651.673 20.024t-.673 20.024a290.625 290.625 0 0 1-16.03 12.066 291.692 291.692 0 0 1-22.484 14.278 294.502 294.502 0 0 1-22.464-14.278q-8.5-5.954-16.03-12.056-.662-9.658-.673-20.034t.673-20.029q7.535-6.087 16.03-12.061Zm-14.33-5.172a220.585 220.585 0 0 1 4.618-24.552c6.127 2.351 12.561 5.182 19.212 8.5-5.6 3.4-11.194 7.038-16.723 10.913a302.177 302.177 0 0 0-7.107 5.142Zm49.764-16.055c6.651-3.315 13.085-6.146 19.212-8.5a220.352 220.352 0 0 1 4.617 24.552 317.048 317.048 0 0 0-7.1-5.142 304.975 304.975 0 0 0-16.727-10.913Zm38.662 44.567q4.736 4.343 9.047 8.75-4.3 4.395-9.047 8.75c.084-2.9.139-5.815.139-8.75s-.055-5.85-.139-8.75ZM292.8 293.262a220.352 220.352 0 0 1-4.617 24.552c-6.127-2.351-12.561-5.181-19.212-8.5a308.711 308.711 0 0 0 16.727-10.913q3.615-2.532 7.1-5.142Zm-49.763 16.055c-6.651 3.316-13.085 6.142-19.212 8.487a220.391 220.391 0 0 1-4.618-24.542 288.416 288.416 0 0 0 7.107 5.142 306.68 306.68 0 0 0 16.723 10.913Zm-38.662-44.562a238.26 238.26 0 0 1-9.067-8.755c2.841-2.9 5.875-5.82 9.067-8.75-.084 2.9-.138 5.815-.138 8.75s.054 5.85.138 8.755ZM256 366.934c-10.175 0-21-13.758-28.685-36.994A238.187 238.187 0 0 0 256 316.76a238.187 238.187 0 0 0 28.685 13.18C277 353.176 266.175 366.934 256 366.934Zm90.87-47.3c-3.222 4.613-10.012 6.974-19.39 6.969-7.587 0-16.882-1.554-27.364-4.7a247.738 247.738 0 0 0 6.508-39.548c6.662-5.578 12.9-11.3 18.6-17.089a157.747 157.747 0 0 1 11.888 15.446c11.333 16.921 14.985 31.466 9.759 38.919ZM327.48 185.4c9.378 0 16.168 2.361 19.39 6.968 5.226 7.449 1.574 22-9.759 38.92a157.747 157.747 0 0 1-11.888 15.446c-5.7-5.785-11.937-11.511-18.6-17.089a246.172 246.172 0 0 0-6.508-39.548c10.482-3.148 19.777-4.7 27.364-4.7ZM256 145.066c10.175 0 21 13.758 28.685 36.994A238.964 238.964 0 0 0 256 195.24a238.964 238.964 0 0 0-28.685-13.18c7.685-23.236 18.51-36.994 28.685-36.994Zm-90.87 47.3c3.222-4.612 10.011-6.968 19.39-6.968 7.582 0 16.882 1.549 27.359 4.7a246.742 246.742 0 0 0-6.5 39.548c-6.662 5.578-12.9 11.3-18.6 17.089-20.5-23.676-28.422-44.685-21.642-54.366ZM256 282.77A26.77 26.77 0 1 1 282.765 256 26.8 26.8 0 0 1 256 282.77Zm0-40.949A14.179 14.179 0 1 1 241.826 256 14.192 14.192 0 0 1 256 241.821Zm-194.455-91.7a6.292 6.292 0 0 1-6.3-6.295v-.188a6.3 6.3 0 1 1 12.59 0v.188a6.3 6.3 0 0 1-6.3 6.295ZM249.7 31.549a6.3 6.3 0 0 0 12.591 0v-.184a6.3 6.3 0 0 0-12.591 0v.184Zm194.46 112.275a6.295 6.295 0 0 0 12.59 0v-.188a6.3 6.3 0 1 0-12.59 0v.188Zm6.295 218.057a6.3 6.3 0 0 0-6.295 6.3v.183a6.295 6.295 0 0 0 12.59 0v-.183a6.293 6.293 0 0 0-6.3-6.3ZM262.3 480.447a6.3 6.3 0 0 0-12.591 0v.188a6.3 6.3 0 0 0 12.591 0v-.188ZM67.84 368.181a6.3 6.3 0 1 0-12.59 0v.183a6.295 6.295 0 0 0 12.59 0Z" class="" style="fill-rule:evenodd" fill="#bdbdbd" data-original="#000000"></path></g></svg>