<svg xmlns="http://www.w3.org/2000/svg" version="1.1" xmlns:xlink="http://www.w3.org/1999/xlink"
    xmlns:svgjs="http://svgjs.com/svgjs" width="512" height="512" x="0" y="0"
    viewBox="0 0 30.732 30.732" style="enable-background:new 0 0 512 512" xml:space="preserve"
    class=""><g>
<g xmlns="http://www.w3.org/2000/svg">
	<g>
		<path d="M30.731,15.366c0-2.37-1.637-4.522-4.293-6.109C26.36,7.82,25.883,6.61,25.003,5.729    c-0.867-0.867-2.083-1.357-3.529-1.437C19.888,1.637,17.735,0,15.367,0c-2.266,0-4.335,1.496-5.899,3.95    C7.806,3.958,6.415,4.473,5.445,5.443C4.449,6.44,3.978,7.837,3.972,9.453c-2.467,1.567-3.971,3.64-3.971,5.913    c0,2.375,1.646,4.532,4.313,6.12c0.075,1.408,0.528,2.628,1.417,3.518c0.868,0.868,2.083,1.357,3.531,1.438    c1.586,2.654,3.737,4.291,6.106,4.291c2.266,0,4.334-1.496,5.898-3.95c1.661-0.007,3.053-0.522,4.022-1.493    c0.985-0.984,1.483-2.369,1.489-4.021C29.233,19.703,30.731,17.633,30.731,15.366z M20.338,26.145    c-1.45-0.153-3.026-0.658-4.614-1.465c0.304-0.164,0.61-0.338,0.914-0.524c1.779-0.083,3.471-0.343,5.028-0.746    C21.289,24.424,20.842,25.343,20.338,26.145z M9.066,23.409c1.417,0.368,2.947,0.616,4.552,0.721    c0.285,0.185,0.572,0.361,0.859,0.528c-1.476,0.688-2.931,1.103-4.264,1.191C9.783,25.122,9.399,24.302,9.066,23.409z     M10.396,4.586c1.451,0.152,3.026,0.657,4.613,1.465c-0.305,0.165-0.608,0.338-0.912,0.524c-1.779,0.084-3.473,0.342-5.031,0.746    C9.445,6.306,9.892,5.388,10.396,4.586z M21.667,7.321c-1.417-0.366-2.947-0.615-4.551-0.719    c-0.286-0.186-0.572-0.361-0.859-0.528c1.477-0.688,2.932-1.103,4.264-1.191C20.95,5.61,21.334,6.43,21.667,7.321z M23.019,15.366    c0,0.702-0.027,1.392-0.082,2.065c-0.729,1.03-1.574,2.035-2.521,2.982c-0.95,0.95-1.96,1.793-2.993,2.521    c-0.672,0.053-1.356,0.082-2.055,0.082c-0.858,0-1.697-0.045-2.513-0.123c-0.929-0.687-1.835-1.463-2.695-2.321    c-0.871-0.871-1.642-1.782-2.322-2.705c-0.079-0.813-0.121-1.648-0.121-2.503c0-0.702,0.028-1.393,0.082-2.067    c0.72-1.019,1.563-2.024,2.521-2.981c0.951-0.95,1.961-1.794,2.995-2.522c0.671-0.053,1.357-0.081,2.055-0.081    c0.856,0,1.696,0.043,2.513,0.123c0.93,0.685,1.835,1.463,2.694,2.322c0.862,0.863,1.635,1.771,2.323,2.702    C22.976,13.674,23.019,14.51,23.019,15.366z M20.987,9.745c-0.635-0.637-1.299-1.229-1.979-1.775    c1.087,0.155,2.124,0.378,3.095,0.661c0.28,0.967,0.504,2.002,0.658,3.088C22.216,11.042,21.624,10.38,20.987,9.745z M15.92,6.55    c-0.184-0.004-0.368-0.008-0.554-0.008c-0.015,0-0.028,0-0.043,0c0.101-0.054,0.201-0.11,0.302-0.161    C15.724,6.437,15.822,6.494,15.92,6.55z M12.171,7.911c-0.78,0.604-1.542,1.267-2.267,1.993c-0.733,0.733-1.394,1.495-1.992,2.27    c0.156-1.25,0.398-2.441,0.72-3.542C9.733,8.311,10.922,8.067,12.171,7.911z M6.576,14.098c-0.185,0.304-0.355,0.607-0.519,0.911    c-0.818-1.605-1.331-3.183-1.481-4.607C5.38,9.895,6.303,9.445,7.323,9.065C6.919,10.624,6.66,12.317,6.576,14.098z M6.545,15.304    c0,0.021,0,0.041,0,0.062c0,0.185,0.004,0.367,0.008,0.551c-0.056-0.096-0.116-0.194-0.169-0.291    C6.439,15.519,6.487,15.412,6.545,15.304z M6.602,17.102c0.104,1.609,0.353,3.145,0.721,4.564    c-0.891-0.332-1.711-0.716-2.439-1.146c0.087-1.316,0.49-2.774,1.192-4.277C6.242,16.529,6.417,16.814,6.602,17.102z     M7.971,19.004c0.543,0.676,1.132,1.34,1.775,1.982c0.636,0.638,1.299,1.229,1.979,1.773c-1.086-0.154-2.124-0.377-3.093-0.66    C8.35,21.131,8.126,20.092,7.971,19.004z M14.813,24.18c0.185,0.006,0.368,0.01,0.554,0.01c0.015,0,0.029-0.002,0.043-0.002    c-0.101,0.055-0.201,0.11-0.303,0.162C15.009,24.295,14.911,24.236,14.813,24.18z M18.563,22.818    c0.778-0.603,1.541-1.267,2.266-1.991c0.727-0.726,1.387-1.486,1.99-2.267c-0.154,1.25-0.397,2.438-0.717,3.539    C21.001,22.421,19.812,22.664,18.563,22.818z M24.157,16.645c0.184-0.302,0.361-0.604,0.525-0.905    c0.465,0.919,0.842,1.841,1.101,2.747c0.184,0.646,0.301,1.263,0.362,1.85c-0.801,0.504-1.72,0.952-2.735,1.33    C23.813,20.111,24.071,18.42,24.157,16.645z M24.188,15.426c0-0.021,0-0.041,0-0.06c0-0.186-0.004-0.367-0.008-0.551    c0.057,0.097,0.115,0.193,0.168,0.289C24.293,15.21,24.246,15.318,24.188,15.426z M24.13,13.612    c-0.105-1.604-0.354-3.131-0.72-4.547c0.891,0.332,1.709,0.715,2.437,1.145c-0.045,0.667-0.164,1.375-0.377,2.125    c-0.201,0.708-0.475,1.425-0.808,2.144C24.492,14.188,24.317,13.9,24.13,13.612z M24.589,6.143    c0.698,0.699,1.107,1.643,1.234,2.766c-0.852-0.455-1.795-0.855-2.811-1.191c-0.335-1.015-0.734-1.958-1.189-2.809    C22.954,5.039,23.901,5.455,24.589,6.143z M15.367,1.17c1.817,0,3.489,1.185,4.804,3.157c-1.432,0.145-2.979,0.628-4.536,1.399    c-1.663-0.891-3.33-1.476-4.875-1.686C12.043,2.24,13.638,1.17,15.367,1.17z M5.859,5.857c0.788-0.788,1.907-1.233,3.248-1.308    C8.569,5.493,8.104,6.56,7.72,7.718C6.561,8.102,5.496,8.567,4.551,9.104C4.625,7.801,5.041,6.674,5.859,5.857z M1.171,15.366    c0-1.736,1.08-3.338,2.893-4.623c0.206,1.538,0.769,3.211,1.67,4.903c-0.771,1.572-1.25,3.12-1.392,4.534    C2.362,18.863,1.171,17.188,1.171,15.366z M6.144,24.589c-0.713-0.713-1.117-1.666-1.242-2.771    c0.854,0.457,1.799,0.857,2.818,1.195c0.335,1.016,0.735,1.957,1.19,2.81C7.78,25.693,6.832,25.277,6.144,24.589z M15.367,29.561    c-1.819,0-3.489-1.185-4.804-3.155c1.432-0.146,2.979-0.628,4.537-1.398c1.663,0.89,3.329,1.474,4.874,1.685    C18.69,28.49,17.097,29.561,15.367,29.561z M24.875,24.874c-0.789,0.788-1.907,1.233-3.249,1.308    c0.538-0.943,1.003-2.01,1.387-3.168c1.158-0.384,2.223-0.85,3.166-1.386C26.106,22.959,25.674,24.074,24.875,24.874z     M26.685,19.979c-0.072-0.533-0.175-1.078-0.338-1.651c-0.304-1.07-0.756-2.159-1.334-3.24c0.426-0.867,0.777-1.736,1.021-2.593    c0.19-0.673,0.312-1.317,0.375-1.932c1.971,1.313,3.153,2.985,3.153,4.803C29.562,17.096,28.489,18.693,26.685,19.979z" fill="#ffffff" data-original="#000000" style="" class=""/>
		<circle cx="15.603" cy="15.378" r="2.61" fill="#ffffff" data-original="#000000" style="" class=""/>
	</g>
</g>
<g xmlns="http://www.w3.org/2000/svg">
</g>
<g xmlns="http://www.w3.org/2000/svg">
</g>
<g xmlns="http://www.w3.org/2000/svg">
</g>
<g xmlns="http://www.w3.org/2000/svg">
</g>
<g xmlns="http://www.w3.org/2000/svg">
</g>
<g xmlns="http://www.w3.org/2000/svg">
</g>
<g xmlns="http://www.w3.org/2000/svg">
</g>
<g xmlns="http://www.w3.org/2000/svg">
</g>
<g xmlns="http://www.w3.org/2000/svg">
</g>
<g xmlns="http://www.w3.org/2000/svg">
</g>
<g xmlns="http://www.w3.org/2000/svg">
</g>
<g xmlns="http://www.w3.org/2000/svg">
</g>
<g xmlns="http://www.w3.org/2000/svg">
</g>
<g xmlns="http://www.w3.org/2000/svg">
</g>
<g xmlns="http://www.w3.org/2000/svg">
</g>
</g></svg>