<svg xmlns="http://www.w3.org/2000/svg" version="1.1" xmlns:xlink="http://www.w3.org/1999/xlink"
    xmlns:svgjs="http://svgjs.com/svgjs" width="512" height="512" x="0" y="0" viewBox="0 0 512 512"
    style="enable-background:new 0 0 512 512" xml:space="preserve" class=""><g><g data-name="Group 2"><path d="M496 254.18v202.1a23.091 23.091 0 0 1-23.08 23.09H335.89a23.084 23.084 0 0 1-23.08-23.09v-202.1a23.076 23.076 0 0 1 23.08-23.08h31.17v.07a17.156 17.156 0 0 0 17.16 17.16h40.37a17.156 17.156 0 0 0 17.16-17.16v-.07h31.17A23.082 23.082 0 0 1 496 254.18ZM376.92 382.13v-32.98h-32.97v32.98Z" style="" fill="#fffdea" data-original="#f8ec7d" class=""></path><path d="M367.06 231.1v-1.05a17.156 17.156 0 0 1 17.16-17.16h40.37a17.156 17.156 0 0 1 17.16 17.16v1.12a17.156 17.156 0 0 1-17.16 17.16h-40.37a17.156 17.156 0 0 1-17.16-17.16Z" style="" fill="#6fe3ff" data-original="#6fe3ff" class=""></path><path d="M391.31 140.98v71.91h-7.09a17.156 17.156 0 0 0-17.16 17.16v1.05h-31.17a23.076 23.076 0 0 0-23.08 23.08v148.8L203.65 466V249.3l187.64-108.33Z" style="" fill="#bda49f" data-original="#c16752" class=""></path><path d="m203.65 249.3-95.66-55.23L295.62 85.73h.01l95.66 55.24L203.65 249.3z" style="" fill="#89736c" data-original="#af593c" class=""></path><path d="M343.95 349.15h32.97v32.98h-32.97z" style="" fill="#6fe3ff" data-original="#6fe3ff" class=""></path><path d="M295.62 85.73 107.99 194.07l-91.97-53.1L203.65 32.63l91.97 53.1z" style="" fill="#bda49f" data-original="#c16752" class=""></path><path d="M203.65 249.3V466L16 357.66V140.98l.02-.01 91.97 53.1 95.66 55.23z" style="" fill="#ebddd7" data-original="#e48e66" class=""></path><path d="M351.28 325.01h-7.33a7 7 0 0 1-7-7v-32.98a7 7 0 0 1 7-7h32.97a7 7 0 0 1 7 7v4.71a7 7 0 0 1-13.617 2.29H350.95v18.98h.33a7 7 0 0 1 0 14ZM351.28 453.24h-7.33a7 7 0 0 1-7-7v-32.97a7 7 0 0 1 7-7h32.97a7 7 0 0 1 7 7v6.74a7 7 0 0 1-14 .26h-18.97v18.97h.33a7 7 0 0 1 0 14Z" style="" fill="#6fe3ff" data-original="#6fe3ff" class=""></path><path d="M372.54 323.99a6.972 6.972 0 0 1-4.947-2.048l-11.193-11.18a7 7 0 1 1 9.9-9.9l6.241 6.235 20.5-20.5a7 7 0 1 1 9.9 9.9l-25.45 25.45a6.979 6.979 0 0 1-4.951 2.043ZM372.54 453.24a6.972 6.972 0 0 1-4.947-2.048l-11.193-11.18a7 7 0 1 1 9.9-9.9l6.241 6.235 20.5-20.5a7 7 0 1 1 9.9 9.9l-25.45 25.45a6.979 6.979 0 0 1-4.951 2.043Z" style="" fill="#2561a1" data-original="#2561a1" class=""></path><path d="M464.86 308.52h-43.97a7 7 0 0 1 0-14h43.97a7 7 0 0 1 0 14ZM464.86 372.64h-43.97a7 7 0 0 1 0-14h43.97a7 7 0 0 1 0 14ZM464.86 436.76h-43.97a7 7 0 0 1 0-14h43.97a7 7 0 0 1 0 14Z" style="" fill="#ebddd7" data-original="#e48e66" class=""></path></g></g></svg>