<svg xmlns="http://www.w3.org/2000/svg" version="1.1" xmlns:xlink="http://www.w3.org/1999/xlink"
    xmlns:svgjs="http://svgjs.com/svgjs" width="512" height="512" x="0" y="0" viewBox="0 0 497 497"
    style="enable-background:new 0 0 512 512" xml:space="preserve" class=""><g><path fill="#f5f5f5" d="M497 139.5v268c0 22.09-17.91 40-40 40H40c-22.09 0-40-17.91-40-40v-268z" data-original="#f5f5f5" class=""></path><g fill="#50758d"><path d="M447.809 214.404h-143c-4.143 0-7.5-3.357-7.5-7.5s3.357-7.5 7.5-7.5h143c4.143 0 7.5 3.357 7.5 7.5s-3.358 7.5-7.5 7.5zM447.809 254.404h-143c-4.143 0-7.5-3.357-7.5-7.5s3.357-7.5 7.5-7.5h143c4.143 0 7.5 3.357 7.5 7.5s-3.358 7.5-7.5 7.5zM447.809 294.404h-143c-4.143 0-7.5-3.357-7.5-7.5s3.357-7.5 7.5-7.5h143c4.143 0 7.5 3.357 7.5 7.5s-3.358 7.5-7.5 7.5z" fill="#50758d" data-original="#50758d" class=""></path></g><path fill="#93ddb7" d="M326.5 403.404h-156c-15.464 0-28-12.536-28-28s12.536-28 28-28h156c15.464 0 28 12.536 28 28s-12.536 28-28 28z" data-original="#93ddb7"></path><path fill="#2edffc" d="M218.81 220.4v53c0 16.57-13.43 30-30 30h-110c-3.44 0-6.74-.58-9.81-1.65-11.75-4.05-20.19-15.22-20.19-28.35v-53c0-16.56 13.43-30 30-30h110c16.57 0 30 13.44 30 30z" data-original="#2edffc"></path><path fill="#50758d" d="M174.86 303.4H78.81c-3.44 0-6.74-.58-9.81-1.65l51.81-84.35z" data-original="#50758d" class=""></path><path fill="#50758d" d="M215.19 287.69c-4.35 9.28-11.87 11.97-11.87 11.97s-3.15 1.62-5.67 2.42c-.28.09-.55.16-.8.23-3.83.98-6.37 1.09-6.37 1.09h-17.85l-22.09-38.69 13.84-15.57 18.43-20.74 36 43s.89 6.7-3.62 16.29z" data-original="#50758d" class=""></path><path fill="#e6e6e6" d="M497 159.5v-20l-248.5-10L0 139.5v268c0 22.09 17.91 40 40 40h20c-22.09 0-40-17.91-40-40v-248z" data-original="#e6e6e6"></path><path fill="#2b597f" d="M197.65 302.08c-.28.09-.55.16-.8.23-3.83.98-6.37 1.09-6.37 1.09h-17.85l-22.09-38.69 13.84-15.57z" data-original="#2b597f" class=""></path><path fill="#50758d" d="M497 89.5v50H0v-50c0-22.09 17.91-40 40-40h417c22.09 0 40 17.91 40 40z" data-original="#50758d" class=""></path><g fill="#2b597f"><path d="M474.5 94.5c0-12.406-10.093-22.5-22.5-22.5H239c-6.385 0-12.152 2.677-16.251 6.963-4.767 4.757-2.529 2.519-7.286 7.286-4.286 4.099-6.963 9.866-6.963 16.251 0 12.406 10.093 22.5 22.5 22.5h213c6.385 0 12.152-2.677 16.251-6.963 4.767-4.757 2.529-2.519 7.286-7.286 4.286-4.099 6.963-9.866 6.963-16.251zM68.25 94.25c0-12.406-10.093-22.5-22.5-22.5-6.385 0-12.152 2.677-16.251 6.963-4.767 4.757-2.529 2.519-7.286 7.286-4.286 4.099-6.963 9.866-6.963 16.251 0 12.406 10.093 22.5 22.5 22.5 6.385 0 12.152-2.677 16.251-6.963 4.767-4.757 2.529-2.519 7.286-7.286 4.286-4.099 6.963-9.866 6.963-16.251zM132.5 94.25c0-12.406-10.093-22.5-22.5-22.5-6.385 0-12.152 2.677-16.251 6.963-4.767 4.757-2.529 2.519-7.286 7.286-4.286 4.099-6.963 9.866-6.963 16.251 0 12.406 10.093 22.5 22.5 22.5 6.385 0 12.152-2.677 16.251-6.963 4.767-4.757 2.529-2.519 7.286-7.286 4.286-4.099 6.963-9.866 6.963-16.251zM196.5 94.25c0-12.406-10.093-22.5-22.5-22.5-6.385 0-12.152 2.677-16.251 6.963-4.767 4.757-2.529 2.519-7.286 7.286-4.286 4.099-6.963 9.866-6.963 16.251 0 12.406 10.093 22.5 22.5 22.5 6.385 0 12.152-2.677 16.251-6.963 4.767-4.757 2.529-2.519 7.286-7.286 4.286-4.099 6.963-9.866 6.963-16.251z" fill="#2b597f" data-original="#2b597f" class=""></path></g><path fill="#fd646f" d="M45.75 116.75c-12.407 0-22.5-10.094-22.5-22.5s10.093-22.5 22.5-22.5 22.5 10.094 22.5 22.5-10.093 22.5-22.5 22.5z" data-original="#fd646f"></path><path fill="#ffc682" d="M110 117c-12.407 0-22.5-10.094-22.5-22.5S97.593 72 110 72s22.5 10.094 22.5 22.5S122.407 117 110 117z" data-original="#ffc682"></path><path fill="#93ddb7" d="M174 117c-12.407 0-22.5-10.094-22.5-22.5S161.593 72 174 72s22.5 10.094 22.5 22.5S186.407 117 174 117z" data-original="#93ddb7"></path><path fill="#f5f5f5" d="M452 117H239c-12.407 0-22.5-10.094-22.5-22.5S226.593 72 239 72h213c12.407 0 22.5 10.094 22.5 22.5S464.407 117 452 117z" data-original="#f5f5f5" class=""></path></g></svg>