<svg xmlns="http://www.w3.org/2000/svg" version="1.1" xmlns:xlink="http://www.w3.org/1999/xlink"
    xmlns:svgjs="http://svgjs.com/svgjs" width="512" height="512" x="0" y="0" viewBox="0 0 468 468"
    style="enable-background:new 0 0 512 512" xml:space="preserve" class=""><g><path fill="#e3edf0" d="M416.507 44H51.493c-11.856 0-21.468 9.612-21.468 21.469v336.527l407.95-5.367V65.469c0-11.857-9.612-21.469-21.468-21.469z" data-original="#e3edf0" class=""></path><path fill="#a3b5be" d="M281.698 327.138v35.108h-95.397v-35.108H0v75.386C0 414.385 9.612 424 21.468 424h425.064c11.856 0 21.468-9.615 21.468-21.476v-75.386z" data-original="#a3b5be" class=""></path><path fill="#ffffff" d="M324.342 120.082c-24.031 0-44.367 15.823-51.17 37.624H72.886v32h33.297v61.186h32v-61.186h34.756v42.899h32v-42.899h68.233c6.803 21.8 27.139 37.623 51.17 37.623 29.601 0 53.598-24.008 53.598-53.623s-23.997-53.624-53.598-53.624z" data-original="#4c97e3" class=""></path></g></svg>