<svg xmlns="http://www.w3.org/2000/svg" version="1.1" xmlns:xlink="http://www.w3.org/1999/xlink"
    xmlns:svgjs="http://svgjs.com/svgjs" width="512" height="512" x="0" y="0" viewBox="0 0 512 512"
    style="enable-background:new 0 0 512 512" xml:space="preserve" class=""><g><path fill="#ffedc0" d="m488 488-72-368H96L24 488z" data-original="#ffc431" class=""></path><path fill="#ffd284" d="M216 488H24l2.44-12.45L96 120h48l69.56 355.55z" data-original="#ffa100" class=""></path><path fill="#ffbb5e" d="M216 488h-12.5L120 418.41 36.5 488H24l2.44-12.45 85.56-71.3V320h16v84.25l85.56 71.3zM112 120h16v144h-16zM112 280h16v16h-16z" data-original="#f78e00" class=""></path><g fill="#ffe28f"><circle cx="328" cy="272" r="32" fill="#fff6de" data-original="#ffe28f" class=""></circle><path d="M264 336h40v16h-40zM320 336h80v16h-80zM248 368h96v16h-96zM360 368h64v16h-64z" fill="#fff6de" data-original="#ffe28f" class=""></path></g><path fill="#ffde8b" d="M312 120h-16V72a40 40 0 0 0-80 0v48h-16V72a56 56 0 0 1 112 0z" data-original="#ffcc4d" class=""></path><path fill="#fff6de" d="M352 184h-16V72a40 40 0 0 0-80 0v112h-16V72a56 56 0 0 1 112 0z" data-original="#ffe28f" class=""></path><path fill="#ffd284" d="M224 176h48v16h-48zM320 176h48v16h-48z" data-original="#ffa100" class=""></path></g></svg>