<svg xmlns="http://www.w3.org/2000/svg" version="1.1" xmlns:xlink="http://www.w3.org/1999/xlink"
    xmlns:svgjs="http://svgjs.com/svgjs" width="512" height="512" x="0" y="0" viewBox="0 0 512 512"
    style="enable-background:new 0 0 512 512" xml:space="preserve" class=""><g><path d="M328 0C226.542 0 144 82.542 144 184s82.542 184 184 184 184-82.542 184-184S429.458 0 328 0z" style="" fill="#55d3fa" data-original="#55d3fa"></path><path d="M184 144C82.542 144 0 226.542 0 328s82.542 184 184 184 184-82.542 184-184-82.542-184-184-184z" style="" fill="#edebec" data-original="#edebec" class=""></path><path d="M208 496c-101.458 0-184-82.542-184-184 0-58.641 27.575-110.963 70.438-144.68C38.145 198.821 0 259.035 0 328c0 101.458 82.542 184 184 184 42.817 0 82.265-14.701 113.562-39.32C271.039 487.522 240.493 496 208 496z" style="" fill="#dcd7d8" data-original="#dcd7d8" class=""></path><path d="M184 144c-12.452 0-24.616 1.25-36.381 3.619A184.147 184.147 0 0 0 144 184c0 101.458 82.542 184 184 184 12.452 0 24.616-1.25 36.381-3.619A184.147 184.147 0 0 0 368 328c0-101.458-82.542-184-184-184z" style="" fill="#7fdefb" data-original="#7fdefb" class=""></path><path d="M512 184c0-11.275-1.039-22.609-3.088-33.685v-.002a182.907 182.907 0 0 0-14.426-44.732l-.005-.008a184.222 184.222 0 0 0-22.708-36.392l-.011-.015a185.298 185.298 0 0 0-29.633-29.493 184.197 184.197 0 0 0-36.577-22.563 182.86 182.86 0 0 0-44.933-14.225A185.7 185.7 0 0 0 328 0c-8.419 0-16.953.589-25.366 1.749-81.172 11.198-145.686 75.712-156.885 156.885v.002A186.164 186.164 0 0 0 144 184c0 10.949.971 21.924 2.885 32.619a182.887 182.887 0 0 0 14.225 44.933 184.192 184.192 0 0 0 22.562 36.577 185.285 185.285 0 0 0 29.495 29.633 184.311 184.311 0 0 0 36.415 22.724 182.928 182.928 0 0 0 44.731 14.426h.005A185.61 185.61 0 0 0 328 368c7.955 0 15.99-.519 23.884-1.542h.002c82.646-10.719 147.854-75.926 158.572-158.572v-.002A186.5 186.5 0 0 0 512 184zM293.13 348.368a166.99 166.99 0 0 1-26.14-7.8l217.578-217.577a166.871 166.871 0 0 1 7.8 26.139L293.13 348.368zm-62.82-27.688L464.679 86.311a168.378 168.378 0 0 1 12.864 21.076L251.387 333.543a168.449 168.449 0 0 1-21.077-12.863zm-52.263-60.875L403.805 34.047a168.13 168.13 0 0 1 21.176 12.764l-234.17 234.17a168.32 168.32 0 0 1-12.764-21.176zm-14.632-41.936L361.869 19.415a166.576 166.576 0 0 1 26.263 7.677l-217.04 217.041a166.832 166.832 0 0 1-7.677-26.264zM342.072 16.583l-9.162 9.162-172.327 172.328A170.311 170.311 0 0 1 160 184c0-6.813.422-13.708 1.256-20.541L307.46 17.256a169.859 169.859 0 0 1 34.612-.673zm-63.352 6.784L167.366 134.721c16.299-53.066 58.29-95.056 111.354-111.354zm-77.975 270.308 236.93-236.929a169.49 169.49 0 0 1 17.011 16.93L217.675 310.687a169.605 169.605 0 0 1-16.93-17.012zm112.067 57.64 182.504-182.504a169.48 169.48 0 0 1-.4 34.339L347.15 350.916a169.935 169.935 0 0 1-34.338.399zm62.684-6.116 113.703-113.703c-16.044 54.669-59.034 97.659-113.703 113.703z" style="" fill="#56c4f0" data-original="#56c4f0" class=""></path></g></svg>