<svg xmlns="http://www.w3.org/2000/svg" version="1.1" xmlns:xlink="http://www.w3.org/1999/xlink"
    xmlns:svgjs="http://svgjs.com/svgjs" width="512" height="512" x="0" y="0" viewBox="0 0 512 512"
    style="enable-background:new 0 0 512 512" xml:space="preserve" class=""><g><g fill-rule="evenodd" clip-rule="evenodd"><path fill="#afe269" d="M231.495 15.999h254.011c5.78 0 10.495 4.715 10.495 10.495v143.592c0 5.78-4.715 10.495-10.495 10.495H231.495c-5.78 0-10.495-4.715-10.495-10.495V26.494c0-5.78 4.715-10.495 10.495-10.495z" data-original="#afe269" class=""></path><path fill="#eaffce" d="M267.128 37.263h182.743v3.601c0 11.744 9.519 21.264 21.264 21.264h3.601v72.324h-3.601c-11.745 0-21.264 9.519-21.264 21.264v3.601H267.128v-3.601c0-11.745-9.519-21.264-21.264-21.264h-3.601V62.128h3.601c11.745 0 21.264-9.519 21.264-21.264z" data-original="#c6ea94" class=""></path><circle cx="358.5" cy="98.29" r="44.049" fill="#afe269" transform="rotate(-22.48 358.282 98.053)" data-original="#afe269" class=""></circle><path fill="#ffffff" d="M32.871 91.317h151.567a6.973 6.973 0 0 1 0 13.946H32.871l17.956 17.956a7 7 0 0 1-9.899 9.899L11.05 103.24a7 7 0 0 1 0-9.899l29.878-29.878a7 7 0 0 1 9.899 9.899z" data-original="#f76c82" class=""></path><path fill="#eaffce" d="M479.101 356.054h-151.54a7 7 0 1 1 0-14h151.54l-17.929-17.929a7 7 0 0 1 9.899-9.899l29.878 29.878a7 7 0 0 1 0 9.899l-29.878 29.878a7 7 0 0 1-9.899-9.899z" data-original="#c6ea94" class=""></path><path fill="#c89f81" d="m143.259 202.107 127.26 73.474v146.947l-127.26 73.473-127.26-73.473V275.581z" data-original="#c89f81" class=""></path><path fill="#d5a889" d="M15.999 275.581v146.947l127.26 73.473V349.054z" data-original="#d5a889" class=""></path><path fill="#dcb190" d="m143.259 202.107 127.26 73.473-127.26 73.474-127.26-73.474z" data-original="#dcb190"></path><path fill="#efc7a4" d="m189.188 228.624 35.401 20.439-127.26 73.473-35.401-20.438v61.228l35.401 20.438v-61.227l-35.401-20.439z" data-original="#efc7a4"></path><path fill="#e6bd9b" d="m61.928 363.325 35.401 20.439v-61.228l-35.401-20.438z" data-original="#e6bd9b" class=""></path></g></g></svg>