<svg xmlns="http://www.w3.org/2000/svg" version="1.1" xmlns:xlink="http://www.w3.org/1999/xlink"
    xmlns:svgjs="http://svgjs.com/svgjs" width="512" height="512" x="0" y="0" viewBox="0 0 512 512"
    style="enable-background:new 0 0 512 512" xml:space="preserve" class=""><g><path fill="#37d0f9" d="M458.293 216.508c0 111.731-90.62 202.267-202.351 202.267S53.676 328.239 53.676 216.508c0-111.73 90.536-202.351 202.267-202.351s202.35 90.621 202.35 202.351z" data-original="#37d0f9" class=""></path><path fill="#72b505" d="M268.127 62.272c-12.356-16.257 12.637-37.202 18.191-45.894 59.579 9.012 110.646 43.975 141.27 92.956-5.424 12.182-7.009 28.621-19.526 33.377-11.932 4.589-26.368-5.674-37.633.167-12.517 6.508-10.764 26.785-22.363 34.712-9.346 6.342-23.113.584-28.621-9.262-11.507-20.574 3.937-44.502 4.256-66.171.251-11.265-4.339-23.531-14.436-28.622-13.018-6.423-32.293.336-41.138-11.263zM429.34 320.864c-34.796 57.493-97.295 96.294-168.973 97.796 32.583-39.03 10.878-77.106 11.181-90.87.167-7.593 4.589-15.854 12.099-17.106 15.52-2.67 25.117 24.783 40.303 20.36 13.434-3.922 8.928-25.951 19.108-35.714 12.767-12.266 37.049 4.089 50.9-6.926 7.177-5.674 8.011-15.937 11.015-24.532 8.486-24.282 35.64-12.597 25.2 9.012-4.149 8.687-25.567 28.548-.833 47.98z" data-original="#72b505" class=""></path><path d="M458.255 216.535c0 111.71-90.569 202.278-202.279 202.278-14.9 0-29.331-1.56-43.295-4.681 90.959-19.736 159.139-100.71 159.139-197.598 0-96.966-68.18-177.94-159.139-197.676 13.964-3.12 28.396-4.68 43.295-4.68 111.71.001 202.279 90.569 202.279 202.357z" opacity=".18" fill="#000000" data-original="#000000" class=""></path><path fill="#72b505" d="M136.203 243.178c-5.341 8.344-5.925 20.944 2.169 26.619 26.891-4.182 39.82 32.027 16.772 45.894-9.763 5.925-23.614 3.922-31.291-4.506-4.005-4.339-6.258-9.93-9.93-14.603-10.764-13.768-30.791-15.771-47.896-10.347-8.01-21.779-12.349-45.227-12.349-69.759 0-64.752 30.374-122.411 77.686-159.46 9.341 28.605-10.309 46.275-21.278 67.59-7.26 14.269-9.68 33.795 2.086 44.642 7.76 7.092 19.025 8.094 29.372 10.097 29.282 5.951 32.454 25.955 15.354 43.057-6.927 6.924-15.438 12.515-20.695 20.776z" data-original="#72b505" class=""></path><path fill="#f9f3f3" d="M492.466 216.498c0 26.397-21.399 47.797-47.796 47.797h-48.788v-95.593h48.788c26.397 0 47.796 21.399 47.796 47.796z" data-original="#fd4746" class=""></path><path d="M492.501 216.535c0 26.367-21.453 47.742-47.82 47.742h-48.288c26.367 0 47.742-21.375 47.742-47.742 0-26.445-21.375-47.82-47.742-47.82h48.288c26.368 0 47.82 21.375 47.82 47.82z" opacity=".18" fill="#000000" data-original="#000000" class=""></path><path fill="#e6e8e7" d="M395.784 168.638v95.657H67.299c-26.397 0-47.796-21.399-47.796-47.796v-.064c0-26.397 21.399-47.796 47.796-47.796h328.485z" data-original="#e6e8e7" class=""></path><path fill="#bee7fd" d="M365.266 370.458c-31.725 31.724-83.115 31.724-114.84 0-31.581-31.581-31.581-82.971.144-114.695 31.581-31.581 82.972-31.581 114.553 0 31.724 31.724 31.724 83.114.143 114.695z" data-original="#bee7fd" class=""></path><path d="M365.268 370.448c-20.048 20.048-47.976 27.459-73.797 22.155 15.134-3.121 29.487-10.453 41.111-22.155 31.516-31.594 31.516-82.924-.156-114.674a80.463 80.463 0 0 0-40.955-21.999c25.821-5.305 53.671 2.028 73.641 21.999 31.75 31.75 31.75 83.08.156 114.674z" opacity=".18" fill="#000000" data-original="#000000" class=""></path><path fill="#c57408" d="m401.519 391.38 85.482 77.47c7.047 6.386 7.316 17.369.592 24.093-6.725 6.724-17.707 6.455-24.094-.592l-77.47-85.482a10.966 10.966 0 0 1 15.49-15.489z" data-original="#c57408"></path><path d="M13.68 216.534c0 25.149 17.437 46.251 40.84 51.996 1.664 6.623 3.601 13.151 5.917 19.403.002.007 0 .014.002.02.002.008.009.013.012.021.029.078.05.16.08.238 47.07 128.311 202.978 176.057 313.765 99.688l4.608 4.608c-8.225 17.896 10.938 22.069 80.26 103.77 8.487 9.355 23.312 10.055 32.567.8 9.084-9.1 8.735-23.916-.8-32.567l-85.483-77.469h-.008c-5.121-4.646-12.319-5.531-18.263-2.806l-3.288-3.288c35.363-27.49 61.678-66.445 73.47-112.387 23.463-5.725 40.953-26.865 40.953-52.066 0-25.226-17.523-46.384-41.021-52.084-23.74-92.535-106.496-156.08-201.317-156.08-97.451 0-178.383 66.648-201.303 156.018-23.48 5.7-40.991 26.878-40.991 52.185zm383.914 179.178 85.475 77.469c4.583 4.156 4.74 11.258.389 15.625-4.962 4.962-11.965 3.647-15.625-.389l-77.469-85.475a5.1 5.1 0 0 1 .183-7.054c1.938-1.952 5.031-1.989 7.047-.176zM25.381 216.458c0-23.144 18.794-41.968 41.892-41.968h322.642v83.936h-14.539c-32.628-40.25-92.719-43.032-128.94-6.803a87.8 87.8 0 0 0-6.115 6.803H67.273c-23.098 0-41.892-18.794-41.892-41.968zm371.642 53.685c-1.504 5.599-3.043 10.817-6.704 13.674-.185.147-.429.239-.627.374a86.38 86.38 0 0 0-6.418-14.064l13.749.016zm-35.897 96.179c-29.375 29.375-77.187 29.375-106.562 0-29.299-29.299-29.238-77.042.145-106.425 14.65-14.65 33.893-21.971 53.136-21.971 66.506 0 100.681 80.996 53.281 128.396zm-16.048 25.3c-22.315 11.31-46.946 18.554-72.952 20.655 3.399-5.409 6.07-11.027 8.001-16.823 22.501 7.529 45.214 5.495 64.951-3.832zM130.573 270.128c2.148 2.968 5.082 6.037 8.668 5.47 11.336-1.752 18.253 5.531 20.729 12.341 7.409 20.444-18.326 33.998-31.851 19.243-5.368-5.797-16.72-37.275-58.263-27.965a177.043 177.043 0 0 1-2.823-9.102c3.508.021 47.429.01 63.54.013zm-56.549 20.131c45.334-8.585 32.594 34.65 68.562 34.65 29.507 0 40.992-36.613 18.446-54.782h71.389c-18.927 33.209-14.371 76.226 13.87 104.467 6.894 6.894 14.692 12.313 22.983 16.407-2.444 7.646-6.415 14.982-11.895 21.899-81.343.574-153.595-49.313-183.355-122.641zm275.522 99.14c5.442-2.969 10.603-6.596 15.435-10.812l.934.934a195.544 195.544 0 0 1-16.369 9.878zm25.964-16.83-2.249-2.249c18.357-20.958 24.962-48.673 19.709-74.527 1.673-.765 3.222-1.69 4.601-2.795 7.239-5.647 9.207-14.107 11.627-22.854h15.765c-2.86 6.244-26.018 29.931-3.156 51.893-12.404 19.594-28.129 36.628-46.297 50.532zm52.443-61.045c-8.42-9.858-3.598-19.084 3.603-29.786 1.6-2.384 2.986-4.441 3.893-6.361a30.952 30.952 0 0 0 1.931-5.234h7.287c.035 0 .07-.005.105-.005-4.122 14.628-9.744 28.495-16.819 41.386zm58.659-95.028c0 23.129-18.817 41.945-41.945 41.945h-42.936V174.55h42.936c23.128.001 41.945 18.818 41.945 41.946zm-41.945-53.647-80.692-.061c11.652-31.073 24.26-6.257 46.205-14.581 11.191-4.271 15.294-15.135 18.657-25.141 6.663 12.424 11.926 25.774 15.87 39.785l-.04-.002zm-23.546-52.975c-4.742 12.076-6.603 24.152-15.101 27.394-14.404 5.467-37.974-18.276-52.862 21.072-.569 1.517-1.228 2.965-1.843 4.449h-27.934c-7.26-17.226 5.865-40.096 6.161-60.495.244-12.037-4.274-27.288-17.712-34-15.802-7.771-65.727 4.415-26.656-41.1a169.373 169.373 0 0 0 3.683-4.412c54.988 9.198 102.763 41.12 132.264 87.092zM275.05 21.019c-9.572 11.211-23.666 28.896-11.55 44.844 16.014 20.991 55.186-4.714 54.34 36.224-.26 18.556-12.709 39.57-6.813 60.701H114.372c-7.147-9.021-4.898-24.008.941-35.493 9.986-19.509 29.7-38.648 22.671-67.751 34.172-25.793 74.844-39.512 117.99-39.512 6.435.001 12.784.384 19.076.987zM127.662 67.956c3.333 33.526-42.252 56.57-26.714 94.833H67.273l-.019.001c10.359-36.668 31.448-69.767 60.408-94.834z" fill="#000000" data-original="#000000" class=""></path><path d="M268.018 222.316c3.23 0 5.851-2.621 5.851-5.851s-2.621-5.851-5.851-5.851H70.93c-3.23 0-5.851 2.621-5.851 5.851s2.621 5.851 5.851 5.851z" fill="#000000" data-original="#000000" class=""></path></g></svg>