<svg xmlns="http://www.w3.org/2000/svg" version="1.1" xmlns:xlink="http://www.w3.org/1999/xlink"
  xmlns:svgjs="http://svgjs.com/svgjs" width="512" height="512" x="0" y="0" viewBox="0 0 512 512"
  style="enable-background:new 0 0 512 512" xml:space="preserve" class=""><g><g xmlns="http://www.w3.org/2000/svg"><path d="m387.821 36.137h-354.484c-18.411 0-33.337 14.926-33.337 33.337v23.603l5.151 2.386v11.074l-5.151 1.993v294.941l5.151 2.249v10.903l-5.151 2.301v23.602c0 18.412 14.926 33.337 33.337 33.337h354.483c29.725 0 53.822-24.097 53.822-53.822v-332.082c0-29.725-24.096-53.822-53.821-53.822z" fill="#e7a561" data-original="#e7a561" style="" class=""/><g><g><g><path d="m483.702 416.279v-10.302l7.168-2.506v-294.941l-7.168-3.28v-8.585l7.168-3.588v-3.118c0-29.725-24.097-53.822-53.822-53.822h-56.268c29.725 0 53.822 24.097 53.822 53.822v332.082c0 29.725-24.097 53.822-53.822 53.822h56.268c29.725 0 53.822-24.097 53.822-53.822v-3.117z" fill="#e28424" data-original="#e28424" style="" class=""/><path d="m441.642 316.51c11.678 0 21.145-9.467 21.145-21.145v-78.729c0-11.678-9.467-21.145-21.145-21.145h-62.775c-33.419 0-60.51 27.091-60.51 60.51 0 33.419 27.091 60.51 60.51 60.51h62.775z" fill="#e28424" data-original="#e28424" style="" class=""/><path d="m490.855 195.49h-56.268c11.678 0 21.145 9.467 21.145 21.145v78.729c0 11.678-9.467 21.145-21.145 21.145h56.268c11.678 0 21.145-9.467 21.145-21.145v-78.729c0-11.678-9.467-21.145-21.145-21.145z" fill="#df751c" data-original="#df751c" style="" class=""/></g><circle cx="379.083" cy="256" fill="#ffd064" r="24.33" data-original="#ffd064" style=""/></g><g><path d="m21.119 418.924c4.267 0 7.726-3.459 7.726-7.726s-3.459-7.726-7.726-7.726h-21.119v15.453h21.119z" fill="#e28424" data-original="#e28424" style="" class=""/><g><path d="m428.967 418.924h-40.785c-4.267 0-7.726-3.459-7.726-7.726s3.459-7.726 7.726-7.726h40.785c4.267 0 7.726 3.459 7.726 7.726s-3.459 7.726-7.726 7.726zm-81.57 0h-40.785c-4.267 0-7.726-3.459-7.726-7.726s3.459-7.726 7.726-7.726h40.785c4.267 0 7.726 3.459 7.726 7.726s-3.459 7.726-7.726 7.726zm-81.57 0h-40.785c-4.267 0-7.726-3.459-7.726-7.726s3.459-7.726 7.726-7.726h40.785c4.267 0 7.726 3.459 7.726 7.726s-3.458 7.726-7.726 7.726zm-81.569 0h-40.785c-4.267 0-7.726-3.459-7.726-7.726s3.459-7.726 7.726-7.726h40.785c4.267 0 7.726 3.459 7.726 7.726s-3.459 7.726-7.726 7.726zm-81.57 0h-40.785c-4.267 0-7.726-3.459-7.726-7.726s3.459-7.726 7.726-7.726h40.785c4.267 0 7.726 3.459 7.726 7.726s-3.459 7.726-7.726 7.726z" fill="#e28424" data-original="#e28424" style="" class=""/></g><path d="m490.871 418.924v-15.453h-21.119c-4.267 0-7.726 3.459-7.726 7.726s3.459 7.726 7.726 7.726h21.119z" fill="#df751c" data-original="#df751c" style="" class=""/></g><g><path d="m490.871 108.53v-15.453h-21.119c-4.267 0-7.726 3.459-7.726 7.726 0 4.268 3.459 7.726 7.726 7.726h21.119z" fill="#df751c" data-original="#df751c" style="" class=""/><g><path d="m428.967 108.53h-40.785c-4.267 0-7.726-3.459-7.726-7.726 0-4.268 3.459-7.726 7.726-7.726h40.785c4.267 0 7.726 3.459 7.726 7.726.001 4.267-3.459 7.726-7.726 7.726zm-81.57 0h-40.785c-4.267 0-7.726-3.459-7.726-7.726 0-4.268 3.459-7.726 7.726-7.726h40.785c4.267 0 7.726 3.459 7.726 7.726.001 4.267-3.459 7.726-7.726 7.726zm-81.569 0h-40.785c-4.267 0-7.726-3.459-7.726-7.726 0-4.268 3.459-7.726 7.726-7.726h40.785c4.267 0 7.726 3.459 7.726 7.726s-3.459 7.726-7.726 7.726zm-81.57 0h-40.785c-4.267 0-7.726-3.459-7.726-7.726 0-4.268 3.459-7.726 7.726-7.726h40.785c4.267 0 7.726 3.459 7.726 7.726s-3.459 7.726-7.726 7.726zm-81.569 0h-40.786c-4.267 0-7.726-3.459-7.726-7.726 0-4.268 3.459-7.726 7.726-7.726h40.785c4.267 0 7.726 3.459 7.726 7.726.001 4.267-3.458 7.726-7.725 7.726z" fill="#e28424" data-original="#e28424" style="" class=""/></g><path d="m21.119 108.53c4.267 0 7.726-3.459 7.726-7.726 0-4.268-3.459-7.726-7.726-7.726h-21.119v15.453h21.119z" fill="#e28424" data-original="#e28424" style="" class=""/></g></g></g></g></svg>