<svg xmlns="http://www.w3.org/2000/svg" version="1.1" xmlns:xlink="http://www.w3.org/1999/xlink"
    xmlns:svgjs="http://svgjs.com/svgjs" width="512" height="512" x="0" y="0" viewBox="0 0 64 64"
    style="enable-background:new 0 0 512 512" xml:space="preserve" class=""><g><path fill="#505050" d="M24 48h16v2H24zM50 24v16h-2V24zM16 24v16h-2V24z" data-original="#505050" class=""></path><path fill="#fab400" d="M20 26h24v12H20z" data-original="#fab400" class=""></path><path fill="#dc9600" d="M22 38h-2V26h2z" data-original="#dc9600" class=""></path><path fill="#e4f4fb" d="M40 8h16v16H40z" data-original="#64c8f0" class=""></path><path fill="#8b989d" d="M46 14h4v4h-4z" data-original="#288cb4" class=""></path><path fill="#e4f4fb" d="M8 8h16v16H8zM8 40h16v16H8z" data-original="#64c8f0" class=""></path><path fill="#ffffff" d="M8 8h4v16H8zM8 40h4v16H8z" data-original="#46aad2" class=""></path><path fill="#e4f4fb" d="M40 40h16v16H40z" data-original="#64c8f0" class=""></path><path fill="#ffffff" d="M40 8h4v16h-4zM40 40h4v16h-4z" data-original="#46aad2" class=""></path><path fill="#8b989d" d="M14 14h4v4h-4zM14 46h4v4h-4zM46 46h4v4h-4z" data-original="#288cb4" class=""></path><path fill="#505050" d="M24 14h16v2H24z" data-original="#505050" class=""></path><path fill="#f0f0f0" d="M25.333 29.917v3.333H24.5v-3.333h-.833v3.333h-.834v-3.333H22v4.166h4.167v-4.166zM29.5 30.75v-.833H27v4.166h2.5v-.833h-1.667v-.833H29.5v-.834h-1.667v-.833zM34.5 33.25v.833H37v-4.166h-2.5v.833h1.667v.833H34.5v.834h1.667v.833zM32.833 30.75a.833.833 0 0 0-.833-.833h-1.667v4.167H32c.46 0 .833-.373.833-.833v-.833a.821.821 0 0 0-.116-.417.821.821 0 0 0 .116-.417zm-1.666 0H32v.833h-.833zm.833 2.5h-.833v-.833H32zM39.5 29.917v4.167H42v-4.167zm1.667 3.333h-.833v-2.5h.833zM37.833 33.25h.833v.833h-.833z" data-original="#f0f0f0"></path></g></svg>